<svg id="Layer_1" data-name="Layer 1" xmlns="http://www.w3.org/2000/svg" xmlns:xlink="http://www.w3.org/1999/xlink" viewBox="0 0 822.5 746.85"><defs><style>.cls-1{fill:url(#linear-gradient);}</style><linearGradient id="linear-gradient" x1="637.47" y1="867" x2="680.8" y2="147.44" gradientTransform="matrix(1.05, -0.04, -0.04, 1.03, 36.01, -28.65)" gradientUnits="userSpaceOnUse"><stop offset="0" stop-color="#ff4e2e"/><stop offset="0.11" stop-color="#fe4738"/><stop offset="0.47" stop-color="#fb3357"/><stop offset="0.78" stop-color="#f92769"/><stop offset="1" stop-color="#f82370"/></linearGradient></defs><title>color-figure-2</title><path class="cls-1" d="M1061.48,175C1206.9,360.52,1022,671.56,952.84,717.64,942.21,724.73,930,732,930,732A603,603,0,0,1,814.7,785c-51.12,17.41-89.6,19.43-279.13,32.85C433,825.12,413.29,826.71,386,812c-67.14-36.18-85.52-120.08-88.19-133.17C261.12,499.07,459.7,319.11,506,277.48c4.15-3.74,7.42-6.61,9.6-8.54,76.74-67.68,236.18-207.23,383-191.28C993.3,88,1049.27,159.37,1061.48,175Z" transform="translate(-293.32 -76.4)"/></svg>