<?xml version="1.0" encoding="utf-8"?>
<!-- Generator: Adobe Illustrator 23.1.0, SVG Export Plug-In . SVG Version: 6.00 Build 0)  -->
<svg version="1.1" id="Capa_1" xmlns="http://www.w3.org/2000/svg" xmlns:xlink="http://www.w3.org/1999/xlink" x="0px" y="0px"
	 viewBox="0 0 32.7 32.7" style="enable-background:new 0 0 32.7 32.7;" xml:space="preserve">
<style type="text/css">
	.st0{fill:url(#SVGID_1_);}
</style>
<g>
	<linearGradient id="SVGID_1_" gradientUnits="userSpaceOnUse" x1="16.333" y1="32.667" x2="16.333" y2="-9.094947e-13">
		<stop  offset="0" style="stop-color:#FF8F5A"/>
		<stop  offset="1" style="stop-color:#FF2F96"/>
	</linearGradient>
	<path class="st0" d="M16.3,0C7.3,0,0,7.3,0,16.3c0,9,7.3,16.3,16.3,16.3c0.6,0,1-0.5,1-1c0-0.6-0.5-1-1-1C8.4,30.7,2,24.2,2,16.3
		C2,8.4,8.4,2,16.3,2s14.3,6.4,14.3,14.3c0,3.3-1.8,6.6-4.3,8c-0.9,0.5-1.9,0.8-3,0.8c0.6-0.4,1.2-0.9,1.6-1.5
		c0.1-0.1,0.2-0.2,0.2-0.4c0.3-0.8,0.4-1.7,0.6-2.5c0.2-1.1-4.7-3.1-5.1-1.8c-0.2,0.5-0.4,2-0.7,2.5c-0.3,0.4-1,0.2-1.4-0.2
		c-1.1-1-2.4-2.4-3.5-3.5l0,0c0,0-0.1-0.1-0.1-0.1c0,0-0.1-0.1-0.1-0.1l0,0c-1.1-1.1-2.5-2.3-3.5-3.5c-0.4-0.4-0.5-1.1-0.2-1.4
		c0.4-0.3,2-0.5,2.5-0.7c1.3-0.4-0.8-5.3-1.8-5.1c-0.8,0.2-1.7,0.2-2.5,0.6C9.4,7.5,9.3,7.6,9.1,7.7C6.3,9.4,6,13.7,8.7,16.9
		c1,1.2,2.1,2.4,3.2,3.6l0,0c0,0,0.1,0.1,0.1,0.1c0,0,0.1,0.1,0.1,0.1l0,0c1.2,1.1,2.5,2.8,4.8,4.3c4.7,3.1,8.3,2.3,10.4,1.1
		c3.7-2,5.3-6.3,5.3-9.7C32.7,7.3,25.3,0,16.3,0z"/>
</g>
</svg>
